<svg width="24" height="24" viewBox="0 0 24 24" fill="none" xmlns="http://www.w3.org/2000/svg">
<path opacity="0.2" d="M12 12.1022V21.75C11.874 21.7495 11.7502 21.7172 11.64 21.6563L3.39 17.1412C3.2722 17.0768 3.17386 16.9819 3.10526 16.8665C3.03666 16.751 3.0003 16.6193 3 16.485V7.51875C3.00003 7.41308 3.0224 7.30861 3.06563 7.21219L12 12.1022Z" fill="#353535"/>
<path d="M20.97 6.20156L12.72 1.6875C12.4996 1.5657 12.2518 1.50181 12 1.50181C11.7482 1.50181 11.5004 1.5657 11.28 1.6875L3.03 6.20344C2.7944 6.33235 2.59772 6.52215 2.46052 6.75302C2.32331 6.9839 2.25061 7.24737 2.25 7.51594V16.4822C2.25061 16.7508 2.32331 17.0142 2.46052 17.2451C2.59772 17.476 2.7944 17.6658 3.03 17.7947L11.28 22.3106C11.5004 22.4324 11.7482 22.4963 12 22.4963C12.2518 22.4963 12.4996 22.4324 12.72 22.3106L20.97 17.7947C21.2056 17.6658 21.4023 17.476 21.5395 17.2451C21.6767 17.0142 21.7494 16.7508 21.75 16.4822V7.51687C21.7499 7.24783 21.6774 6.98377 21.5402 6.75236C21.403 6.52095 21.206 6.3307 20.97 6.20156ZM12 3L19.5319 7.125L12 11.25L4.46812 7.125L12 3ZM3.75 8.4375L11.25 12.5419V20.5847L3.75 16.4831V8.4375ZM12.75 20.5847V12.5456L20.25 8.4375V16.4794L12.75 20.5847Z" fill="#353535"/>
</svg>
