<svg width="24" height="24" viewBox="0 0 24 24" fill="none" xmlns="http://www.w3.org/2000/svg">
<path fill-rule="evenodd" clip-rule="evenodd" d="M9 3C8.73478 3 8.48043 3.10536 8.29289 3.29289C8.10536 3.48043 8 3.73478 8 4C8 4.26522 8.10536 4.51957 8.29289 4.70711C8.48043 4.89464 8.73478 5 9 5H18V18C18 18.2652 17.8946 18.5196 17.7071 18.7071C17.5196 18.8946 17.2652 19 17 19H9C8.73478 19 8.48043 19.1054 8.29289 19.2929C8.10536 19.4804 8 19.7348 8 20C8 20.2652 8.10536 20.5196 8.29289 20.7071C8.48043 20.8946 8.73478 21 9 21H17C17.7956 21 18.5587 20.6839 19.1213 20.1213C19.6839 19.5587 20 18.7956 20 18V4C20 3.73478 19.8946 3.48043 19.7071 3.29289C19.5196 3.10536 19.2652 3 19 3H9ZM12.707 8.293C12.5671 8.15319 12.389 8.05798 12.195 8.01942C12.0011 7.98085 11.8 8.00065 11.6173 8.07632C11.4346 8.15199 11.2785 8.28013 11.1686 8.44454C11.0587 8.60895 11 8.80225 11 9V11H5C4.73478 11 4.48043 11.1054 4.29289 11.2929C4.10536 11.4804 4 11.7348 4 12C4 12.2652 4.10536 12.5196 4.29289 12.7071C4.48043 12.8946 4.73478 13 5 13H11V15C11 15.1978 11.0587 15.391 11.1686 15.5555C11.2785 15.7199 11.4346 15.848 11.6173 15.9237C11.8 15.9993 12.0011 16.0192 12.195 15.9806C12.389 15.942 12.5671 15.8468 12.707 15.707L15.707 12.707C15.8945 12.5195 15.9998 12.2652 15.9998 12C15.9998 11.7348 15.8945 11.4805 15.707 11.293L12.707 8.293Z" fill="url(#paint0_linear_155_67)"/>
<defs>
<linearGradient id="paint0_linear_155_67" x1="12" y1="3" x2="12" y2="21" gradientUnits="userSpaceOnUse">
<stop stop-color="#FFB800"/>
<stop offset="1" stop-color="#EBFF00"/>
</linearGradient>
</defs>
</svg>
