<svg width="100" height="80" viewBox="0 0 100 80" fill="none" xmlns="http://www.w3.org/2000/svg">
<path d="M10 80C7.25001 80 4.89501 79.02 2.93501 77.06C0.975008 75.1 -0.00332484 72.7467 8.48897e-06 70V10C8.48897e-06 7.25001 0.980009 4.89501 2.94001 2.93501C4.90001 0.975008 7.25334 -0.00332484 10 8.48897e-06H40L50 10H90C92.75 10 95.105 10.98 97.065 12.94C99.025 14.9 100.003 17.2533 100 20V70C100 72.75 99.02 75.105 97.06 77.065C95.1 79.025 92.7467 80.0033 90 80H10Z" fill="url(#paint0_linear_32_403)"/>
<defs>
<linearGradient id="paint0_linear_32_403" x1="50" y1="0" x2="50" y2="80" gradientUnits="userSpaceOnUse">
<stop stop-color="#42FF00"/>
<stop offset="1" stop-color="#00FF85"/>
</linearGradient>
</defs>
</svg>
