<svg width="24" height="24" viewBox="0 0 24 24" fill="none" xmlns="http://www.w3.org/2000/svg">
<path d="M3 21V19H5V5C5 4.45 5.196 3.979 5.588 3.587C5.98 3.195 6.45067 2.99934 7 3H17C17.55 3 18.021 3.196 18.413 3.588C18.805 3.98 19.0007 4.45067 19 5V19H21V21H3ZM15 19H17V5H12.5V3.9C13.2333 4.03334 13.8333 4.375 14.3 4.925C14.7667 5.475 15 6.11667 15 6.85V19ZM11 13C11.2833 13 11.521 12.904 11.713 12.712C11.905 12.52 12.0007 12.2827 12 12C12 11.7167 11.904 11.479 11.712 11.287C11.52 11.095 11.2827 10.9993 11 11C10.7167 11 10.479 11.096 10.287 11.288C10.095 11.48 9.99933 11.7173 10 12C10 12.2833 10.096 12.521 10.288 12.713C10.48 12.905 10.7173 13.0007 11 13Z" fill="#353535"/>
</svg>
