<svg width="24" height="24" viewBox="0 0 24 24" fill="none" xmlns="http://www.w3.org/2000/svg">
<path d="M15 13C15.55 13 16.021 12.804 16.413 12.412C16.805 12.02 17.0007 11.5493 17 11C17 10.45 16.804 9.979 16.412 9.587C16.02 9.195 15.5493 8.99934 15 9C14.45 9 13.979 9.196 13.587 9.588C13.195 9.98 12.9993 10.4507 13 11C13 11.55 13.196 12.021 13.588 12.413C13.98 12.805 14.4507 13.0007 15 13ZM11 17H19V16.45C19 15.7 18.6333 15.104 17.9 14.662C17.1667 14.22 16.2 13.9993 15 14C13.8 14 12.8333 14.221 12.1 14.663C11.3667 15.105 11 15.7007 11 16.45V17ZM4 20C3.45 20 2.979 19.804 2.587 19.412C2.195 19.02 1.99934 18.5493 2 18V6C2 5.45 2.196 4.979 2.588 4.587C2.98 4.195 3.45067 3.99934 4 4H9.175C9.44167 4 9.696 4.05 9.938 4.15C10.18 4.25 10.3923 4.39167 10.575 4.575L12 6H20C20.55 6 21.021 6.196 21.413 6.588C21.805 6.98 22.0007 7.45067 22 8V18C22 18.55 21.804 19.021 21.412 19.413C21.02 19.805 20.5493 20.0007 20 20H4Z" fill="#353535"/>
</svg>
